# xmcd
#
# Track frame offsets:
#	150
#	12091
#	37653
#	52016
#	65682
#	81016
#	97389
#	112014
#	140711
#	172260
#	193959
#	219597
#	246838
#	279661
#	315425
#
# Disc length: 4514
#
# Revision: 3
# Processed by: cddbd v1.5.1PL0 Copyright (c) Steve Scherf et al.
# Submitted via: CDex 1.51
# Normalized: r2:DSETVAR1,TDELIM( - )
#
DISCID=e511a00f
DTITLE=Various Artist - The Blue Note Guide to Jazz CD 2
DYEAR=1900
DGENRE=Jazz
TTITLE0=Art Tatum - Tea For Two - Art Tatum
TTITLE1=Dizzy Gillespie and Charlie Parker - Confirmation - Charlie Parker and Dizzy Gillespie
TTITLE2=Thelonious Monk - 'Round Midnight - Thelonious Monk
TTITLE3=Bud Powell - Bouncing With Bud - Bud Powell
TTITLE4=Miles Davis - Enigma - Miles Davis
TTITLE5=J.J. Johnson - Capri - J.J. Johnson
TTITLE6=Clifford Brown - Joy Spring - Clifford Brown
TTITLE7=Chet Baker - All The Things You Are - Chet Baker
TTITLE8=Jimmy Smith - Lover Man - Jimmy Smith
TTITLE9=Art Blakey and The Jazz Messengers (Art Blakey's Jazz Messengers) - Are You Real? - Art Blakey and The Jazz Messengers
TTITLE10=Dexter Gordon - Three O'clock In The Morning - Dexter Gordon
TTITLE11=Joe Henderson - Recorda Me - Joe Henderson
TTITLE12=Horace Silver - Song For My Father - Horace Silver
TTITLE13=Herbie Hancock - Maiden Voyage - Herbie Hancock
TTITLE14=Cannonball Adderley - Mercy, Mercy, Mercy - Cannonball Adderley
EXTD=
EXTT0=
EXTT1=
EXTT2=
EXTT3=
EXTT4=
EXTT5=
EXTT6=
EXTT7=
EXTT8=
EXTT9=
EXTT10=
EXTT11=
EXTT12=
EXTT13=
EXTT14=
PLAYORDER=
